<svg xmlns="http://www.w3.org/2000/svg" viewBox="0 0 157.949 55.734">
  <g>
    <path d="M34.278 11.029a.189.189 0 0 0 .175.121l3.362.007a.188.188 0 0 0 .177-.126L41.712.415a.189.189 0 0 0-.178-.251L39.67.172a.188.188 0 0 0-.178.128l-2.127 6.309-2.3-6.314a.188.188 0 0 0-.177-.124h-4.519a.189.189 0 0 0-.176.256Z"/>
    <path d="M43.73 11.156h4.127a.188.188 0 0 0 .188-.188L48.052.359a.189.189 0 0 0-.188-.188h-4.133a.188.188 0 0 0-.188.188v10.608a.188.188 0 0 0 .188.188"/>
    <path d="M53.198 11.252a11.765 11.765 0 0 0 1.288.069 9.944 9.944 0 0 0 2.457-.273 5.654 5.654 0 0 0 1.8-.777 3.448 3.448 0 0 0 1.112-1.212 3.238 3.238 0 0 0 .375-1.538 3.033 3.033 0 0 0-.784-2.1 5.089 5.089 0 0 0-2.208-1.33l-.856-.285a6.848 6.848 0 0 1-.719-.281 2.492 2.492 0 0 1-.444-.257.706.706 0 0 1-.2-.222.468.468 0 0 1-.054-.218.626.626 0 0 1 .07-.278.819.819 0 0 1 .216-.267 1.179 1.179 0 0 1 .373-.2 2 2 0 0 1 .953-.045 3.765 3.765 0 0 1 .472.1 4.243 4.243 0 0 1 .485.17 3.264 3.264 0 0 1 .455.237.19.19 0 0 0 .147.023.186.186 0 0 0 .118-.091l.771-1.392a.189.189 0 0 0-.087-.263 8.94 8.94 0 0 0-.744-.3 8.713 8.713 0 0 0-.93-.266c-.338-.077-.7-.141-1.079-.189a9.576 9.576 0 0 0-1.2-.073 7.263 7.263 0 0 0-2.224.309 4.8 4.8 0 0 0-1.593.838 3.455 3.455 0 0 0-.958 1.23 3.493 3.493 0 0 0-.317 1.452 3.024 3.024 0 0 0 .738 2.033 4.858 4.858 0 0 0 2.137 1.335l1.277.435a3.5 3.5 0 0 1 .572.246 1.517 1.517 0 0 1 .324.234.53.53 0 0 1 .134.2.642.642 0 0 1 .036.2.535.535 0 0 1-.293.482 2.206 2.206 0 0 1-1.1.208 6.685 6.685 0 0 1-1.5-.188 6.811 6.811 0 0 1-1.542-.563.188.188 0 0 0-.248.072l-.835 1.421a.188.188 0 0 0 .079.264 11.748 11.748 0 0 0 1.147.493 9.891 9.891 0 0 0 1.168.349 10.456 10.456 0 0 0 1.214.208"/>
    <path d="M61.886 11.156h4.126a.188.188 0 0 0 .188-.188L66.207.359a.188.188 0 0 0-.188-.188h-4.133a.188.188 0 0 0-.188.188v10.608a.188.188 0 0 0 .188.188"/>
    <path d="M68.023 2.176h2.839v8.793a.188.188 0 0 0 .188.188h4.126a.189.189 0 0 0 .189-.188V2.176h2.839a.188.188 0 0 0 .188-.188V.353a.188.188 0 0 0-.188-.188h-10.18a.189.189 0 0 0-.189.188v1.632a.188.188 0 0 0 .189.188"/>
    <path d="M105.537 19.693a4.243 4.243 0 0 0 4.008-3.87 4.333 4.333 0 0 0-4.147-3.932 4.151 4.151 0 0 0-3.938 4.1 4 4 0 0 0 4.077 3.707"/>
    <path d="M133.786 37.522a75.267 75.267 0 0 0-.2-8.4 6.65 6.65 0 0 0-6.02-6.03 8.32 8.32 0 0 0-6.817 2.244c-.269-1.622-.745-2.723-2.346-2.613a8.19 8.19 0 0 0-6.149 3.231 1.914 1.914 0 0 0 .381 3.034 2.489 2.489 0 0 1 1.2 2.027c-.011 3.577.641 7.458-1.714 10.836-1.2 1.723-.578 3.152 1.436 3.767a11.358 11.358 0 0 0 6.889-.116c1.618-.521 2.058-1.826 1.206-3.354-2.515-4.514-1.87-9.31-.47-13.765a2.623 2.623 0 0 1 2.635-2.133 2.943 2.943 0 0 1 2.819 2.2 12.064 12.064 0 0 1 .471 3.8c.253 3.366.5 6.718-1.622 9.765-1.058 1.521-.4 2.969 1.383 3.567a11.262 11.262 0 0 0 6.553.061c2.161-.574 2.7-1.934 1.468-3.809a7.273 7.273 0 0 1-1.106-4.3"/>
    <path d="M107.972 37.716c.167-4.079.342-8.158.457-12.238.068-2.392-.981-3.306-3.278-2.831a8.886 8.886 0 0 0-4.882 2.7c-1.333 1.466-1.269 2.372.239 3.7a2.341 2.341 0 0 1 .953 2c-.348 3.7.535 7.564-1.906 10.964-1.132 1.577-.364 3.053 1.5 3.722a9.1 9.1 0 0 0 3.33.369 11.512 11.512 0 0 0 2.989-.3c2.357-.693 2.976-2.019 1.647-4.063a6.565 6.565 0 0 1-1.051-4.021"/>
    <path d="M96.11 37.38c.134-7.876.186-15.754.345-23.63a3.342 3.342 0 0 0-1.287-3.173 3.881 3.881 0 0 0-2.759-.022 8.961 8.961 0 0 0-4.606 3.143c-.675 1-.824 2.044.3 2.8a3.275 3.275 0 0 1 1.388 3.227c-.052 1.064-.067 2.133-.034 3.2s-.086 1.56-1.356.916a7.858 7.858 0 0 0-9.532 1.884c-3.395 4.008-4.134 8.641-2.772 13.635 1.388 5.092 6.066 8.751 12.256 5.848a1.471 1.471 0 0 1 1.673-.009c1.916 1.631 4.029 1.081 6.065.491 2.11-.612 2.654-2.1 1.456-3.952a7.374 7.374 0 0 1-1.133-4.356m-6.7-2.681-.234 6.384c-.05 1.021-.375 1.9-1.481 2.142a2.752 2.752 0 0 1-3.041-.889 7.716 7.716 0 0 1-1.437-3.57 20.409 20.409 0 0 1 .815-10.652c.484-1.314 1.138-2.59 2.889-2.3 1.768.292 2.406 1.606 2.47 3.2.076 1.892.018 3.789.018 5.683"/>
    <path d="M157.478 18.563c-1.484-1.484-4.441-1.436-5.942 1.714a19.472 19.472 0 0 0-.785 2.123c-.235.691-.38 1.1-1.405.825a10.81 10.81 0 0 0-8.145.943c-4.489 2.424-6.207 7.935-3.154 11.688 2.012 2.472 1.806 4.124.417 6.781-2.765 5.29-.938 11.054 5.5 12.73a14.2 14.2 0 0 0 5.128.191s5.052-.733 7.007-4.761a8.1 8.1 0 0 0 .039-7.866 4.343 4.343 0 0 0-5.857-1.561c-2.216 1.25-2.733 3.182-1.512 5.655.831 1.683.022 2.824-1.812 3.238a3.639 3.639 0 0 1-4.358-2.346c-.781-1.98-.337-3.917.272-5.818a1.635 1.635 0 0 1 2.074-1.168 8.382 8.382 0 0 0 4.573-.4c4.032-1.433 6.891-4.517 7.02-8.5a8.453 8.453 0 0 0-2.978-6.984c-.378-.333-.9-.682-.683-1.3.2-.573.78-.646 1.291-.765a7.256 7.256 0 0 1 1.219-.128 2.328 2.328 0 0 0 2.428-1.841c.444-1.807-.335-2.45-.335-2.45m-8.743 17.787a2.694 2.694 0 0 1-2.3 1.592 2.374 2.374 0 0 1-2.313-1.553 10.826 10.826 0 0 1-.024-9.42 2.442 2.442 0 0 1 2.313-1.583 2.5 2.5 0 0 1 2.162 1.555 10.928 10.928 0 0 1 1.194 5.05 7.9 7.9 0 0 1-1.027 4.358"/>
    <path d="M29.548 41.483a8.005 8.005 0 0 1-2.837-3.992 8.679 8.679 0 0 0-5.1-6.182c.455-.21.776-.36 1.1-.506 3.518-1.59 5.8-4.034 5.651-8.16-.138-3.949-2.6-6.145-5.963-7.347a37.361 37.361 0 0 0-18.75-1.374c-2.9.466-3.573 2.31-1.989 4.8a8.193 8.193 0 0 1 1.336 4.856 113.798 113.798 0 0 0-.008 6.4C3.081 34 2.945 37.784.554 41.452c-.534.82-1.393 2.672 1.423 3.647a13.2 13.2 0 0 0 9.206-.061 2.436 2.436 0 0 0 1.1-3.943c-1.7-2.2-1.452-4.652-1.523-7.112a1.158 1.158 0 0 1 1.224-1.37c3.828-.369 6.354 1.632 6.841 5.468.081.646.18 1.29.3 1.929.981 5.208 4.33 7.563 9.11 6.346 1.127-.287 2.354-.595 2.686-2 .311-1.313-.514-2.132-1.369-2.872m-9.123-16.472a4.77 4.77 0 0 1-3.832 3.985c-1.364.354-2.789.475-4.185.707-1.268.211-1.708-.375-1.674-1.589.05-1.716.013-3.435.013-5.152 0-1.658.047-3.318-.016-4.974-.045-1.174.421-1.614 1.572-1.483l2.131.082c6 .76 6.588 4.105 5.993 8.423"/>
    <path d="M50.076 37.79c-.706-.581-1.32-.211-1.887.294a9.987 9.987 0 0 1-3.824 2.175c-3.421 1.019-6.471-.69-7.079-3.945-.24-1.288 0-2.087 1.573-1.974 1.181.086 2.373.017 3.561.017v-.033c1.365 0 2.737.09 4.094-.02a3.509 3.509 0 0 0 3.412-4.1 8.7 8.7 0 0 0-8.066-7.233c-7.041-.279-12.249 5.434-11.656 12.785.446 5.53 3.734 9.224 9 10.112a10.322 10.322 0 0 0 10.844-6.313c.248-.572.717-1.2.027-1.771m-12.319-9.275a7.188 7.188 0 0 1 .866-1.528c1.2-1.658 3.068-2.3 4.44-1.563 1.256.671 1.917 3.151 1.276 4.786-.469 1.194-1.664 1.653-4.336 1.665-2.868.013-3.327-.657-2.246-3.36"/>
    <path d="M72.771 37.38c.135-7.876.186-12.723.345-20.6a3.342 3.342 0 0 0-1.287-3.173 3.88 3.88 0 0 0-2.759-.022 8.961 8.961 0 0 0-4.606 3.143c-.675 1-.877 2.129.3 2.8 1.553.888 1.354 3.394 1.354 3.394.034 1.079-.086 1.56-1.356.916a7.857 7.857 0 0 0-9.531 1.884c-3.4 4.008-4.134 8.641-2.773 13.635 1.389 5.092 6.066 8.751 12.257 5.848a1.471 1.471 0 0 1 1.673-.01c1.916 1.631 4.029 1.081 6.064.491 2.11-.612 2.654-2.1 1.456-3.952a7.377 7.377 0 0 1-1.133-4.356m-6.7-2.681-.234 6.384c-.05 1.021-.375 1.9-1.481 2.142a2.752 2.752 0 0 1-3.041-.889 7.713 7.713 0 0 1-1.436-3.57 20.411 20.411 0 0 1 .815-10.652c.484-1.314 1.138-2.59 2.889-2.3 1.768.292 2.406 1.606 2.47 3.2.077 1.892.018 3.789.018 5.683"/>
  </g>
</svg>


