<svg viewBox="0 0 286.31 94.24">
  <title>Redding Set Go Logo</title>
  <path d="M75.815 80.337c-1.5-.48-3.2-1.03-3.2-1.66 0-.84 1.65-.93 2.36-.93 1.55-.06 3.07.44 4.29 1.4.15.14.34.21.54.21h.39c.29 0 .57-.16.71-.41l1.2-2.13c.2-.35.11-.79-.21-1.04a11.435 11.435 0 0 0-6.92-1.99c-5.28 0-8.71 2.57-8.74 6.55-.02 4.16 3.84 5.46 6.66 6.42 2.1.71 3.48 1.24 3.48 2.14 0 1.14-1.42 1.37-2.62 1.37-1.95.03-3.84-.68-5.29-1.98a.82.82 0 0 0-.54-.2h-.42c-.27 0-.52.14-.67.36l-1.38 2.06c-.23.34-.17.8.14 1.07 2.36 1.82 5.28 2.77 8.26 2.67 5.81 0 9.42-2.62 9.42-6.84 0-4.67-4.31-6.06-7.46-7.07M101.655 89.937h-8.52v-4.35h5.48c.45 0 .81-.36.81-.81v-2.34c0-.45-.36-.81-.81-.81h-5.48v-3.55h7.87c.45 0 .81-.36.81-.81 0-.1-.02-.2-.06-.29l-.91-2.34a.815.815 0 0 0-.76-.52h-13.15c-.45 0-.81.36-.81.81v18.2c0 .45.36.81.81.81h13.8c.34 0 .64-.21.76-.52l.91-2.37a.817.817 0 0 0-.46-1.05.583.583 0 0 0-.29-.06M121.795 74.617a.815.815 0 0 0-.76-.52h-15.08c-.34 0-.64.21-.76.52l-.91 2.34c-.16.42.05.89.46 1.05.09.04.19.05.29.05h4.96v15.05c0 .45.36.81.81.81h5.35c.45 0 .81-.36.81-.81v-15.05h4.96a.807.807 0 0 0 .75-1.11l-.88-2.33zM184.865 82.447h-7.36c-.34 0-.64.21-.76.52l-.91 2.34c-.16.42.05.89.46 1.05.09.04.19.05.29.05h2.07v3.53c-.55.2-1.13.3-1.71.3-1.16 0-2.7-.34-2.7-3.27v-5.88c0-2.28.98-3.35 3.09-3.35 1.6-.08 3.15.61 4.16 1.86.15.2.39.32.65.32h.42c.25 0 .49-.12.64-.32l1.4-1.82a.81.81 0 0 0-.01-1c-1.78-2.22-4.95-3.01-7.32-3.01-6.22 0-10.41 4.11-10.41 10.22 0 6.02 4.15 10.22 10.09 10.22 1.64.02 3.26-.38 4.7-1.17l1.72.96c.12.07.26.1.4.1h1.07c.45 0 .81-.36.81-.81v-10.06c.02-.42-.34-.78-.79-.78M198.585 73.787c-6.16 0-10.15 4.01-10.15 10.22s3.98 10.22 10.15 10.22c6.15 0 10.12-4.01 10.12-10.22s-3.97-10.22-10.12-10.22m2.75 13.97c0 1.74-.82 2.49-2.75 2.49-1.95 0-2.78-.74-2.78-2.46v-7.54c0-1.16.32-2.49 2.78-2.49 1.9 0 2.75.77 2.75 2.49v7.51zM189.885 16.657c3.74-.06 7.37-3.56 7.37-7.12 0-3.63-3.84-7.27-7.63-7.23-4.02.21-7.2 3.5-7.24 7.53-.01 3.63 3.57 6.88 7.5 6.82M228.705 32.757c.92 2.27.69 4.67.87 6.99.47 6.19.91 12.36-2.98 17.96-1.95 2.8-.73 5.46 2.54 6.56a20.7 20.7 0 0 0 12.05.11c3.97-1.05 4.97-3.56 2.7-7.01-1.49-2.36-2.2-5.13-2.03-7.92.17-5.16.04-10.32-.37-15.46a12.228 12.228 0 0 0-11.08-11.09c-4.59-.59-9.2.93-12.54 4.13-.49-2.98-1.37-5.01-4.32-4.81-4.47.21-8.61 2.38-11.31 5.94-1.46 1.89-1.57 4 .7 5.58 1.32.79 2.15 2.19 2.21 3.73-.02 6.58 1.18 13.72-3.15 19.93-2.21 3.17-1.06 5.8 2.64 6.93 4.14 1.24 8.57 1.17 12.67-.21 2.98-.96 3.79-3.36 2.22-6.17-4.63-8.3-3.44-17.13-.86-25.32.72-2.29 2.15-3.95 4.85-3.92 2.77.04 4.22 1.66 5.19 4.05M194.635 64.367c4.27-1.26 5.4-3.66 2.98-7.37a11.903 11.903 0 0 1-1.91-7.29c.3-7.39.62-14.79.83-22.18.12-4.34-1.78-5.99-5.94-5.13-3.4.64-6.5 2.36-8.85 4.9-2.42 2.66-2.3 4.3.43 6.7a4.25 4.25 0 0 1 1.73 3.62c-.63 6.7.97 13.71-3.46 19.88-2.05 2.86-.66 5.53 2.72 6.75 1.95.59 4 .82 6.04.67 1.84.05 3.66-.13 5.43-.55M173.625 64.157c3.82-1.11 4.81-3.81 2.64-7.16a13.342 13.342 0 0 1-2.05-7.9c.24-14.28.34-28.56.62-42.83.05-2.63-.5-4.51-2.33-5.75-2.11-1.12-5-.04-5-.04-3.24 1.22-6.33 2.7-8.35 5.7-1.22 1.81-1.49 3.71.54 5.07 2.17 1.47 2.64 3.46 2.52 5.85-.1 1.93-.12 3.87-.06 5.8.06 1.96-.16 2.83-2.46 1.66a14.24 14.24 0 0 0-17.28 3.42c-6.15 7.27-7.49 15.66-5.02 24.72 2.52 9.23 11 15.86 22.22 10.6 1.04-.49 2.13-.79 3.03-.02 3.46 2.95 7.29 1.95 10.98.88m-11.56-19.92-.42 11.57c-.09 1.85-.68 3.44-2.68 3.88-2.08.46-4.04.28-5.51-1.61-1.4-1.9-2.29-4.13-2.6-6.47a36.99 36.99 0 0 1 1.48-19.31c.88-2.38 2.06-4.7 5.24-4.17 3.21.53 4.36 2.91 4.48 5.81.12 3.43.02 6.87.01 10.3M285.445 14.577c-2.73-2.73-8.17-2.64-10.93 3.15-.56 1.27-1.04 2.57-1.44 3.9-.43 1.27-.7 2.02-2.59 1.52a19.898 19.898 0 0 0-14.98 1.73c-8.26 4.46-11.42 14.6-5.8 21.5 3.7 4.55 3.32 7.59.77 12.48-5.09 9.73-1.72 20.34 10.11 23.42 0 0 5.52 1.25 9.43.35 0 0 9.29-1.35 12.89-8.76 2.41-4.96 2.66-9.6.07-14.47-2.04-3.83-7.2-4.89-10.77-2.87-4.08 2.3-5.03 5.85-2.78 10.4 1.53 3.1.04 5.2-3.33 5.96-3.39.88-6.88-1-8.02-4.32-1.44-3.64-.62-7.21.5-10.7a3.01 3.01 0 0 1 3.64-2.2c.06.01.11.03.17.05 2.82.54 5.73.29 8.41-.73 7.41-2.63 12.67-8.3 12.91-15.63.31-4.91-1.72-9.67-5.48-12.85-.7-.61-1.65-1.25-1.26-2.4.36-1.05 1.44-1.19 2.37-1.41.74-.14 1.49-.22 2.24-.24 2.25-.13 3.9-1.04 4.47-3.39.83-3.31-.6-4.49-.6-4.49m-16.08 32.72c-1.01 1.66-2.17 2.88-4.24 2.93-1.89.07-3.6-1.08-4.26-2.86a19.882 19.882 0 0 1-.04-17.33 4.498 4.498 0 0 1 4.25-2.91c1.77.11 3.31 1.22 3.98 2.86 1.47 2.88 2.22 6.06 2.2 9.29.16 2.8-.5 5.58-1.89 8.02M53.565 56.527c-2.32-2.01-4.4-4.25-5.14-7.23-1.07-5.02-4.52-9.2-9.25-11.21.82-.38 1.41-.65 1.99-.92 6.38-2.88 10.51-7.31 10.24-14.79-.25-7.16-4.72-11.14-10.81-13.32-11.04-3.95-22.51-4.33-33.99-2.49-5.26.84-6.48 4.19-3.6 8.7 1.71 2.61 2.56 5.69 2.42 8.8-.13 3.86-.1 7.73-.01 11.6.17 7.29-.08 14.15-4.41 20.8-.97 1.49-2.52 4.84 2.58 6.61 5.4 1.97 11.32 1.93 16.69-.11a4.42 4.42 0 0 0 2.91-5.53c-.19-.6-.5-1.15-.91-1.62-3.09-3.99-2.63-8.43-2.76-12.89-.21-1.14.54-2.24 1.67-2.45.18-.03.36-.04.54-.03 6.94-.67 11.52 2.96 12.4 9.91.15 1.17.33 2.34.54 3.5 1.78 9.44 7.85 13.71 16.51 11.5 2.04-.52 4.27-1.08 4.87-3.63.57-2.37-.93-3.86-2.48-5.2m-16.53-29.86c-.52 3.8-3.23 6.26-6.95 7.22-2.47.64-5.06.86-7.59 1.28-2.3.38-3.1-.68-3.03-2.88.09-3.11.02-6.23.02-9.34 0-3.01.09-6.02-.03-9.02-.08-2.13.76-2.93 2.85-2.69l3.86.15c10.88 1.39 11.95 7.45 10.87 15.28"/>
  <path d="M71.065 64.497c7.9 1.33 16.22-3.49 19.66-11.44.45-1.04 1.3-2.18.05-3.21-1.28-1.05-2.39-.38-3.42.53a18.142 18.142 0 0 1-6.93 3.94c-6.2 1.85-11.73-1.25-12.83-7.15-.43-2.33.01-3.78 2.85-3.58 2.14.15 4.3.03 6.45.03v-.06c2.47 0 4.96.16 7.42-.04 4.19-.34 6.75-3.54 6.19-7.42a15.765 15.765 0 0 0-14.62-13.11c-12.76-.51-22.2 9.85-21.13 23.17.81 10.03 6.77 16.73 16.31 18.34m-2.63-31.48c.41-.98.94-1.91 1.57-2.77 2.18-3 5.56-4.16 8.05-2.83 2.28 1.22 3.48 5.71 2.31 8.68-.85 2.17-3.02 3-7.86 3.02-5.2.01-6.03-1.2-4.07-6.1M131.905 49.097c.24-14.28.34-28.56.62-42.83.05-2.63-.5-4.51-2.33-5.75-2.11-1.12-5-.04-5-.04-3.24 1.22-6.33 2.7-8.35 5.7-1.22 1.81-1.49 3.71.54 5.07 2.17 1.47 2.64 3.46 2.52 5.85-.1 1.93-.12 3.87-.06 5.8.06 1.96-.16 2.83-2.46 1.66a14.24 14.24 0 0 0-17.28 3.42c-6.15 7.27-7.49 15.66-5.02 24.72 2.52 9.23 11 15.86 22.22 10.6 1.04-.49 2.13-.79 3.03-.02 3.47 2.96 7.3 1.96 10.99.89 3.83-1.11 4.81-3.81 2.64-7.16a13.454 13.454 0 0 1-2.06-7.91m-12.14-4.86-.42 11.57c-.09 1.85-.68 3.44-2.68 3.88-2.08.46-4.04.28-5.51-1.61-1.4-1.9-2.29-4.13-2.6-6.47a36.99 36.99 0 0 1 1.48-19.31c.88-2.38 2.06-4.7 5.24-4.17 3.2.53 4.36 2.91 4.48 5.81.12 3.43.01 6.87.01 10.3M150.875 93.177l8.85-8.85-8.85-8.85a.398.398 0 0 0-.67.17c-.92 3.27.57 6.74 3.58 8.32a.4.4 0 0 1 0 .72c-3 1.59-4.49 5.05-3.58 8.32.06.21.28.34.49.27.07-.01.13-.05.18-.1"/>
  <path d="M150.215 85.297v-1.95c0-.45-.36-.81-.81-.81h-20.62c-.45 0-.81.36-.81.81v1.95c0 .45.36.81.81.81h20.62c.45 0 .81-.36.81-.81"/>
</svg>