<svg xmlns="http://www.w3.org/2000/svg" viewBox="0 0 28.514 29.937">
  <g transform="translate(-1313.39 -878.189)" fill="#948c7e" stroke="#948c7e">
    <path d="M1341.4 885.293a3.96 3.96 0 0 0-.937-2.7 3.681 3.681 0 0 0-2.736-1.142h-2.227v-1.671a1.091 1.091 0 0 0-2.181 0v1.669h-11.51v-1.669a1.091 1.091 0 0 0-2.181 0v1.669h-2.1a3.469 3.469 0 0 0-3.634 3.818v18.174a4.381 4.381 0 0 0 1.117 3.226 3.369 3.369 0 0 0 2.443.959h20.457a3.465 3.465 0 0 0 3.489-3.628c.013-2.698 0-17.954 0-18.705Zm-25.328-.028c0-1.14.436-1.629 1.466-1.634h2.088v1.6a1.091 1.091 0 0 0 2.181 0v-1.6h11.51v1.6a1.091 1.091 0 0 0 2.181 0v-1.6h2.192a1.559 1.559 0 0 1 1.148.417 1.788 1.788 0 0 1 .382 1.148v2.889h-23.148v-2.817Zm23.144 18.716a1.277 1.277 0 0 1-1.312 1.461h-20.45a1.226 1.226 0 0 1-.9-.321 2.385 2.385 0 0 1-.477-1.678v-13.182h23.149c-.002 4.933 0 11.976-.011 13.719Z"/>
    <circle cx="1.329" cy="1.329" r="1.329" transform="translate(1326.281 899.329)"/>
    <circle cx="1.329" cy="1.329" r="1.329" transform="translate(1319.475 899.329)"/>
    <circle cx="1.329" cy="1.329" r="1.329" transform="translate(1333.087 899.329)"/>
    <circle cx="1.329" cy="1.329" r="1.329" transform="translate(1326.281 893.331)"/>
    <circle cx="1.329" cy="1.329" r="1.329" transform="translate(1333.087 893.331)"/>
  </g>
</svg>
