<?xml version="1.0" encoding="utf-8"?>
<!-- Generator: Adobe Illustrator 26.2.1, SVG Export Plug-In . SVG Version: 6.00 Build 0)  -->
<svg version="1.1" id="Layer_1" xmlns="http://www.w3.org/2000/svg" xmlns:xlink="http://www.w3.org/1999/xlink" x="0px" y="0px"
	 viewBox="0 0 38 38" enable-background="new 0 0 38 38" xml:space="preserve">
<circle fill="#F04F23" stroke="#FFFFFF" stroke-width="2" cx="19" cy="19" r="17"/>
<g enable-background="new    ">
	<path fill="#FFFFFF" d="M14.01,22.65l2.7-0.94h0.16c0.25,1.33,1.17,1.67,2.02,1.67c1.06,0,1.8-0.79,1.8-2.07
		c0-1.4-0.81-2.11-1.75-2.11c-0.47,0-1.39,0.16-1.94,1.41l-2.83-0.59l0.61-6.75h8.68v2.52h-6.19l-0.22,1.78
		c0.81-0.54,1.75-0.81,2.67-0.81c2.32,0,4.27,1.49,4.27,4.52c0,3.4-2.72,4.63-5.17,4.63C16.37,25.9,14.48,24.86,14.01,22.65z"/>
</g>
</svg>
