<?xml version="1.0" encoding="utf-8"?>
<!-- Generator: Adobe Illustrator 26.2.1, SVG Export Plug-In . SVG Version: 6.00 Build 0)  -->
<svg version="1.1" id="Layer_1" xmlns="http://www.w3.org/2000/svg" xmlns:xlink="http://www.w3.org/1999/xlink" x="0px" y="0px"
	 viewBox="0 0 38 38" enable-background="new 0 0 38 38" xml:space="preserve">
<circle fill="#F04F23" stroke="#FFFFFF" stroke-width="2" cx="19" cy="19" r="17"/>
<g enable-background="new    ">
	<path fill="#FFFFFF" d="M16.48,21.83h0.16c0.2,1.12,0.92,1.64,2.05,1.64c1.89,0,2.34-1.93,2.34-3.28
		c-0.72,0.74-1.64,1.24-2.94,1.24c-1.85,0-4.27-1.1-4.27-4.02c0-2.72,2.14-4.38,4.99-4.38c2.92,0,5.37,1.66,5.37,6.32
		c0,4.72-2.39,6.54-5.55,6.54c-2.39,0-4.23-0.67-4.74-3.42L16.48,21.83z M18.91,18.85c0.83,0,1.69-0.41,1.69-1.53
		c0-1.19-0.92-1.75-1.8-1.75c-0.9,0-1.66,0.68-1.66,1.66C17.15,18.31,17.83,18.85,18.91,18.85z"/>
</g>
</svg>
