<?xml version="1.0" encoding="utf-8"?>
<!-- Generator: Adobe Illustrator 26.2.1, SVG Export Plug-In . SVG Version: 6.00 Build 0)  -->
<svg version="1.1" id="Layer_1" xmlns="http://www.w3.org/2000/svg" xmlns:xlink="http://www.w3.org/1999/xlink" x="0px" y="0px"
	 viewBox="0 0 38 38" enable-background="new 0 0 38 38" xml:space="preserve">
<circle fill="#FFFFFF" stroke="#B2B2B2" stroke-width="4" cx="19" cy="19" r="17"/>
<g enable-background="new    ">
	<path fill="#B2B2B2" d="M23.68,16.51c0,0.97-0.58,2.23-1.96,2.63c1.58,0.47,2.43,1.58,2.43,2.88c0,2.86-2.67,3.89-5.15,3.89
		s-5.15-1.03-5.15-3.89c0-1.3,0.85-2.41,2.43-2.88c-1.39-0.4-1.96-1.66-1.96-2.63c0-2.65,2.65-3.46,4.68-3.46
		S23.68,13.86,23.68,16.51z M17.15,21.96c0,0.94,0.79,1.42,1.85,1.42c1.06,0,1.85-0.49,1.85-1.42c0-0.94-0.77-1.42-1.85-1.42
		C17.94,20.54,17.15,21.02,17.15,21.96z M20.41,16.85c0-0.92-0.68-1.3-1.4-1.3c-0.72,0-1.4,0.38-1.4,1.3c0,0.92,0.68,1.28,1.4,1.28
		C19.72,18.13,20.41,17.77,20.41,16.85z"/>
</g>
</svg>
