<?xml version="1.0" encoding="utf-8"?>
<!-- Generator: Adobe Illustrator 26.2.1, SVG Export Plug-In . SVG Version: 6.00 Build 0)  -->
<svg version="1.1" id="Layer_1" xmlns="http://www.w3.org/2000/svg" xmlns:xlink="http://www.w3.org/1999/xlink" x="0px" y="0px"
	 viewBox="0 0 38 38" enable-background="new 0 0 38 38" xml:space="preserve">
<circle fill="#FFFFFF" stroke="#B2B2B2" stroke-width="4" cx="19" cy="19" r="17"/>
<g enable-background="new    ">
	<path fill="#B2B2B2" d="M21.52,17.12h-0.16c-0.2-1.12-0.92-1.64-2.05-1.64c-1.89,0-2.34,1.93-2.34,3.28
		c0.72-0.74,1.64-1.24,2.94-1.24c1.85,0,4.27,1.1,4.27,4.02c0,2.72-2.14,4.38-4.99,4.38c-2.92,0-5.37-1.66-5.37-6.32
		c0-4.72,2.39-6.54,5.55-6.54c2.4,0,4.23,0.67,4.74,3.42L21.52,17.12z M19.09,20.11c-0.83,0-1.69,0.41-1.69,1.53
		c0,1.19,0.92,1.75,1.8,1.75c0.9,0,1.66-0.68,1.66-1.66C20.86,20.65,20.17,20.11,19.09,20.11z"/>
</g>
</svg>
