<?xml version="1.0" encoding="utf-8"?>
<!-- Generator: Adobe Illustrator 26.2.1, SVG Export Plug-In . SVG Version: 6.00 Build 0)  -->
<svg version="1.1" id="Layer_1" xmlns="http://www.w3.org/2000/svg" xmlns:xlink="http://www.w3.org/1999/xlink" x="0px" y="0px"
	 viewBox="0 0 38 38" enable-background="new 0 0 38 38" xml:space="preserve">
<circle fill="#F04F23" stroke="#FFFFFF" stroke-width="2" cx="19" cy="19" r="17"/>
<g enable-background="new    ">
	<path fill="#FFFFFF" d="M14.1,22.61l2.54-1.12h0.2c0.27,1.46,1.31,1.89,2.11,1.89c0.74,0,1.6-0.5,1.6-1.6
		c0-0.9-0.52-1.46-1.91-1.46h-1.87v-2.07h1.73c1.42,0,1.76-0.76,1.76-1.49c0-0.67-0.5-1.19-1.42-1.19c-0.88,0-1.82,0.4-2.02,1.75
		h-0.18l-2.61-0.65c0.32-2.47,2.05-3.62,4.86-3.62c3.06,0,4.66,1.44,4.66,3.33c0,1.26-0.59,2.3-1.82,2.86
		c1.42,0.41,2.12,1.62,2.12,2.83c0,1.89-1.55,3.83-5.1,3.83C16.25,25.9,14.61,24.81,14.1,22.61z"/>
</g>
</svg>
