<svg class="absolute bottom-0 h-24 text-green-500 fill-current md:h-36 lg:h-56 -right-12 md:-right-14 lg:right-0" viewBox="0 0 652.73 235.5">
  <title>Mountains Graphic</title>
  <path d="m606.22.09-.03-.09-.03.02-.03-.02-.03.09L417.89 188.3l-47.2 47.2H652.73V46.59z"/>
  <path class="opacity-70" d="m376.99 147.4-.01-.04-.01.01-.02-.01-.01.04-57.43 57.43-30.66 30.67H370.69l47.2-47.2z"/>
  <path d="M288.73 200.5c-16-10 61-93 61-93l-27.66 25.11L0 214.85h4.04l316.44-80.8-10.07 9.14-223.9 71.67h3.28l218.83-70.04-8.61 7.82-141.99 62.18.02.04h2.38l137.27-60.12-88.97 80.77h80.12l30.66-30.67c-12.33.44-24.44-.38-30.77-4.34z"/>
</svg>