<svg xmlns="http://www.w3.org/2000/svg" xml:space="preserve" viewBox="0 0 170 182">
  <path fill="#EEE6DA" d="M0 0h170v182H0z"/>
  <path fill="#F5B829" d="m154.2 159.4-.8-2.7 2.4-3.7.2-6.5 4.7-5-3.1-4.4-2.7-8.4-.4-.4L91.3 62l-.6-51.6H44.1c1.1 2.2 1.5 4.7 1.1 7.1-1 6.2-5.8 7.8-4.7 12.7.5 2 1.4 2 4.1 6.3 2.1 3 3.8 6.5 4.9 10.1 1.7 6.6-.4 9.6 2.2 12 2.2 2 5 .6 6.3 2.7 1.4 2.2-1 4.4.3 8.1.8 2.3 2.6 4.3 3.7 4 1.3-.4.5-4 2.6-5 1-.5 2.5-.3 2.8.3s-.7 1.2-1.3 2.6c-1.2 3 1.2 5.3 0 6.8-1 1.1-2.6.1-3.4 1.2-1.4 1.9 2.8 7.3 3 7.6 3.2 3.9 5 3.7 5.7 6.2.8 3.2-2 4.3-1.2 7.5.8 3 3.4 3 5.2 7.2.8 2 .3 2.2 1 4.1 2 5.6 7 5 9 9.7 1.7 4.3-1 7.7 1.4 10 .5.4.9.6 3.8 1.3 8.5 2 10 1.8 11.2 3.4 1.7 2.1.6 4.4 2.4 5.3 1.8 1 4-1.1 5.2 0 .9.8.2 2 1 3 1 1.2 2.8 1 3.9 1 4.5 0 8.9 5.4 10.4 9 2.5 6-.9 10.4 1.4 12.6l.8 1.4.5.3c2.4 1.4 5.7.5 6.2.4 4.4-.4 18 .4 21.1-2.7l1.6-1.7.7-.8-.4-3.6-2.4-1z"/>
  <path fill="#FFF" d="m65 20 2.5 4.9 5.5.8-4 3.9 1 5.4-5-2.5-5 2.5 1-5.4-4-3.9 5.5-.8L65 20z"/>
</svg>