<svg class="absolute bottom-0 z-10 h-20 text-green-800 fill-current md:h-32 lg:h-48 -right-10 md:-right-16 lg:right-0" viewBox="0 0 227.87 199.45">
  <title>Trees Graphic</title>
  <path d="M160.45 99.71a1.545 1.545 0 0 0 .66 2.57c12.6 3.53 25.96-2.21 32.07-13.78.39-.76 1.32-1.07 2.08-.68.29.15.53.39.68.68 6.09 11.53 19.37 17.26 31.93 13.82V98.9l-33.3-33.3-34.12 34.11z" />
  <path d="m194.58 99.56-34.11 34.11a1.545 1.545 0 0 0 .66 2.57c12.6 3.53 25.96-2.21 32.07-13.78.39-.76 1.32-1.07 2.08-.68.29.15.53.39.68.68 6.09 11.52 19.36 17.26 31.91 13.82v-3.43l-33.29-33.29z" />
  <path d="M160.47 167.62a1.545 1.545 0 0 0 .66 2.57c12.6 3.53 25.96-2.21 32.07-13.78.39-.76 1.32-1.07 2.08-.68.29.15.53.39.68.68 6.09 11.52 19.36 17.26 31.91 13.82v-3.43l-33.3-33.29-34.1 34.11z" />
  <path d="M199.45 170.15h-9.76c-1.1 0-2 .9-2 2v27.3h13.76v-27.3a2 2 0 0 0-2-2zM148.7 67.02l-34.12-34.11-34.11 34.11a1.545 1.545 0 0 0 .66 2.57c12.6 3.53 25.96-2.21 32.07-13.78.39-.76 1.32-1.07 2.08-.68.29.15.53.39.68.68 6.11 11.57 19.47 17.31 32.07 13.78.82-.24 1.29-1.09 1.05-1.91-.06-.25-.2-.48-.38-.66z" />
  <path d="M148.7 34.11 114.58 0 80.47 34.11a1.545 1.545 0 0 0 .66 2.57c12.6 3.53 25.96-2.21 32.07-13.78.39-.76 1.32-1.07 2.08-.68.29.15.53.39.68.68 6.11 11.57 19.47 17.31 32.07 13.78.82-.24 1.29-1.09 1.05-1.91-.06-.25-.2-.48-.38-.66zM80.45 103.16c.18.18.41.32.66.39 12.6 3.53 25.96-2.21 32.07-13.78.39-.76 1.32-1.07 2.08-.68.29.15.53.39.68.68 6.11 11.57 19.47 17.31 32.07 13.78.82-.24 1.29-1.09 1.05-1.91-.07-.25-.21-.48-.39-.66l-34.11-34.11-34.12 34.11c-.59.6-.59 1.58.01 2.18z" />
  <path d="m148.7 134.93-34.12-34.11-34.11 34.11a1.545 1.545 0 0 0 .66 2.57c12.6 3.53 25.96-2.21 32.07-13.78.39-.76 1.32-1.07 2.08-.68.29.15.53.39.68.68 6.11 11.57 19.47 17.31 32.07 13.78.82-.24 1.29-1.09 1.05-1.91-.06-.24-.2-.47-.38-.66z" />
  <path d="m148.7 168.89-34.12-34.11-34.11 34.11a1.545 1.545 0 0 0 .66 2.57c12.6 3.53 25.96-2.21 32.07-13.78.39-.76 1.32-1.07 2.08-.68.29.15.53.39.68.68 6.11 11.57 19.47 17.31 32.07 13.78.82-.24 1.29-1.09 1.05-1.91-.06-.25-.2-.48-.38-.66z" />
  <path d="M119.45 171.42h-9.76c-1.1 0-2 .9-2 2v26.03h13.76v-26.03a2 2 0 0 0-2-2zM68.7 66.35 34.58 32.24.47 66.35a1.545 1.545 0 0 0 .66 2.57c12.6 3.53 25.96-2.21 32.07-13.78.39-.76 1.32-1.07 2.08-.68.29.15.53.39.68.68 6.11 11.57 19.47 17.31 32.07 13.78.82-.24 1.29-1.09 1.05-1.91-.06-.25-.2-.48-.38-.66z" />
  <path d="M.45 102.49c.18.18.41.32.66.39 12.6 3.53 25.96-2.21 32.07-13.78.39-.76 1.32-1.07 2.08-.68.29.15.53.39.68.68 6.11 11.57 19.47 17.31 32.07 13.78.82-.24 1.29-1.09 1.05-1.91-.07-.25-.21-.48-.39-.66L34.58 66.2.45 100.31c-.6.6-.6 1.58 0 2.18z" />
  <path d="m68.7 134.26-34.12-34.11L.47 134.26a1.545 1.545 0 0 0 .66 2.57c12.6 3.53 25.96-2.21 32.07-13.78.39-.76 1.32-1.07 2.08-.68.29.15.53.39.68.68 6.11 11.57 19.47 17.31 32.07 13.78.82-.24 1.29-1.09 1.05-1.91-.06-.25-.2-.47-.38-.66z" />
  <path d="m68.7 168.22-34.12-34.11L.47 168.22a1.545 1.545 0 0 0 .66 2.57c12.6 3.53 25.96-2.21 32.07-13.78.39-.76 1.32-1.07 2.08-.68.29.15.53.39.68.68 6.11 11.57 19.47 17.31 32.07 13.78.82-.24 1.29-1.09 1.05-1.91-.06-.25-.2-.48-.38-.66z" />
  <path d="M39.45 170.75h-9.76c-1.1 0-2 .9-2 2v26.7h13.76v-26.7a2 2 0 0 0-2-2z" />
</svg>
