<svg xmlns="http://www.w3.org/2000/svg" class="fill-current" viewBox="0 0 193.514 572.773">
  <title>Trees Graphic</title>
  <g>
    <path d="m96.778 92.153-.011-.03-.011.009-.01-.009-.011.03-95.468 95.47a4.323 4.323 0 0 0 1.854 7.21 77.8 77.8 0 0 0 89.775-38.584 4.33 4.33 0 0 1 7.721 0 77.8 77.8 0 0 0 89.775 38.584 4.322 4.322 0 0 0 1.854-7.21Z"/>
    <path d="M96.778.03 96.767 0l-.011.009-.01-.009-.011.03L1.267 95.5a4.323 4.323 0 0 0 1.854 7.21 77.8 77.8 0 0 0 89.775-38.584 4.33 4.33 0 0 1 7.721 0 77.8 77.8 0 0 0 89.775 38.584 4.322 4.322 0 0 0 1.854-7.21Z"/>
    <path d="m96.778 187.202-.011-.03-.011.009-.01-.009-.011.03-95.468 95.47a4.323 4.323 0 0 0 1.854 7.21 77.8 77.8 0 0 0 89.775-38.584 4.33 4.33 0 0 1 7.721 0 77.8 77.8 0 0 0 89.775 38.584 4.322 4.322 0 0 0 1.854-7.21Z"/>
    <path d="m96.778 282.253-.011-.03-.011.009-.01-.009-.011.03-95.468 95.47a4.323 4.323 0 0 0 1.854 7.21 77.8 77.8 0 0 0 89.775-38.584 4.33 4.33 0 0 1 7.721 0 77.8 77.8 0 0 0 89.775 38.584 4.322 4.322 0 0 0 1.854-7.21Z"/>
    <path d="m96.778 377.3-.011-.03-.011.009-.01-.009-.011.03-95.468 95.47a4.323 4.323 0 0 0 1.854 7.21 77.8 77.8 0 0 0 89.775-38.584 4.33 4.33 0 0 1 7.721 0 77.8 77.8 0 0 0 89.775 38.584 4.322 4.322 0 0 0 1.854-7.21Z"/>
    <path d="M110.418 572.773H83.093a5.594 5.594 0 0 1-5.595-5.595v-81.719a5.593 5.593 0 0 1 5.595-5.593h27.322a5.593 5.593 0 0 1 5.595 5.593v81.72a5.594 5.594 0 0 1-5.595 5.595"/>
  </g>
</svg>
