<svg class="absolute bottom-0 z-10 h-20 text-green-800 fill-current md:h-32 lg:h-48 -left-16 md:-left-27 lg:left-0" viewBox="0 0 290.26 199.45">
  <title>Trees Graphic</title>
  <path d="M17.33 55.81c.39-.76 1.32-1.07 2.08-.68.29.15.53.39.68.68 6.11 11.57 19.47 17.31 32.07 13.78.82-.24 1.29-1.09 1.05-1.91-.07-.25-.21-.48-.39-.66L18.7 32.91 0 51.61v18.03c7.25-1.96 13.62-6.81 17.33-13.83z" />
  <path d="M17.33 22.9c.39-.76 1.32-1.07 2.08-.68.29.15.53.39.68.68 6.11 11.57 19.47 17.31 32.07 13.78.82-.24 1.29-1.09 1.05-1.91-.07-.25-.21-.48-.39-.66L18.7 0 0 18.7v18.03c7.25-1.96 13.62-6.82 17.33-13.83zM17.31 89.77c.39-.76 1.32-1.07 2.08-.68.29.15.53.39.68.68 6.11 11.57 19.47 17.31 32.07 13.78.82-.24 1.29-1.09 1.05-1.91-.07-.25-.21-.48-.39-.66L18.7 66.87 0 85.56v18.03c7.24-1.96 13.61-6.81 17.31-13.82z" />
  <path d="M17.33 123.72c.39-.76 1.32-1.07 2.08-.68.29.15.53.39.68.68 6.11 11.57 19.47 17.31 32.07 13.78.82-.24 1.29-1.09 1.05-1.91-.07-.25-.21-.48-.39-.66l-34.12-34.1L0 119.53v18.03c7.25-1.97 13.62-6.82 17.33-13.84z" />
  <path d="M17.33 157.68c.39-.76 1.32-1.07 2.08-.68.29.15.53.39.68.68 6.11 11.57 19.47 17.31 32.07 13.78.82-.24 1.29-1.09 1.05-1.91-.07-.25-.21-.48-.39-.66L18.7 134.78 0 153.48v18.03c7.25-1.96 13.62-6.81 17.33-13.83z" />
  <path d="M23.57 171.42h-9.76c-1.1 0-2 .9-2 2v26.03h13.76v-26.03c0-1.11-.89-2-2-2zM64.24 102.28c12.6 3.53 25.96-2.21 32.07-13.78.39-.76 1.32-1.07 2.08-.68.29.15.53.39.68.68 6.11 11.57 19.47 17.31 32.07 13.78.82-.24 1.29-1.09 1.05-1.91-.07-.25-.21-.48-.39-.66L97.7 65.6 63.58 99.71c-.6.6-.6 1.58 0 2.18.18.19.41.32.66.39z" />
  <path d="M131.82 133.66 97.7 99.56l-34.11 34.11a1.545 1.545 0 0 0 .66 2.57c12.6 3.53 25.96-2.21 32.07-13.78.39-.76 1.32-1.07 2.08-.68.29.15.53.39.68.68 6.11 11.57 19.47 17.31 32.07 13.78.82-.24 1.29-1.09 1.05-1.91-.06-.25-.19-.48-.38-.67z" />
  <path d="M131.82 167.62 97.7 133.51l-34.11 34.11a1.545 1.545 0 0 0 .66 2.57c12.6 3.53 25.96-2.21 32.07-13.78.39-.76 1.32-1.07 2.08-.68.29.15.53.39.68.68 6.11 11.57 19.47 17.31 32.07 13.78.82-.24 1.29-1.09 1.05-1.91-.06-.25-.19-.47-.38-.66z" />
  <path d="M102.57 170.15h-9.76c-1.1 0-2 .9-2 2v27.3h13.76v-27.3c0-1.11-.89-2-2-2zM210.82 67.02 176.7 32.91l-34.11 34.11a1.545 1.545 0 0 0 .66 2.57c12.6 3.53 25.96-2.21 32.07-13.78.39-.76 1.32-1.07 2.08-.68.29.15.53.39.68.68 6.11 11.57 19.47 17.31 32.07 13.78.82-.24 1.29-1.09 1.05-1.91-.06-.25-.19-.48-.38-.66z" />
  <path d="M210.82 34.11 176.7 0l-34.11 34.11a1.545 1.545 0 0 0 .66 2.57c12.6 3.53 25.96-2.21 32.07-13.78.39-.76 1.32-1.07 2.08-.68.29.15.53.39.68.68 6.11 11.57 19.47 17.31 32.07 13.78.82-.24 1.29-1.09 1.05-1.91-.06-.25-.19-.48-.38-.66zM142.58 103.16c.18.18.41.32.66.39 12.6 3.53 25.96-2.21 32.07-13.78.39-.76 1.32-1.07 2.08-.68.29.15.53.39.68.68 6.11 11.57 19.47 17.31 32.07 13.78.82-.24 1.29-1.09 1.05-1.91-.07-.25-.21-.48-.39-.66l-34.1-34.11-34.12 34.11c-.6.6-.61 1.58 0 2.18z" />
  <path d="m210.82 134.93-34.12-34.11-34.11 34.11a1.545 1.545 0 0 0 .66 2.57c12.6 3.53 25.96-2.21 32.07-13.78.39-.76 1.32-1.07 2.08-.68.29.15.53.39.68.68 6.11 11.57 19.47 17.31 32.07 13.78.82-.24 1.29-1.09 1.05-1.91a1.43 1.43 0 0 0-.38-.66z" />
  <path d="m210.82 168.89-34.12-34.11-34.11 34.11a1.545 1.545 0 0 0 .66 2.57c12.6 3.53 25.96-2.21 32.07-13.78.39-.76 1.32-1.07 2.08-.68.29.15.53.39.68.68 6.11 11.57 19.47 17.31 32.07 13.78.82-.24 1.29-1.09 1.05-1.91-.06-.25-.19-.48-.38-.66z" />
  <path d="M181.57 171.42h-9.76c-1.1 0-2 .9-2 2v26.03h13.76v-26.03c0-1.11-.89-2-2-2zM289.82 66.35 255.7 32.24l-34.11 34.11a1.545 1.545 0 0 0 .66 2.57c12.6 3.53 25.96-2.21 32.07-13.78.39-.76 1.32-1.07 2.08-.68.29.15.53.39.68.68 6.11 11.57 19.47 17.31 32.07 13.78.82-.24 1.29-1.09 1.05-1.91-.06-.25-.19-.48-.38-.66z" />
  <path d="M221.58 102.49c.18.18.41.32.66.39 12.6 3.53 25.96-2.21 32.07-13.78.39-.76 1.32-1.07 2.08-.68.29.15.53.39.68.68 6.11 11.57 19.47 17.31 32.07 13.78.82-.24 1.29-1.09 1.05-1.91-.07-.25-.21-.48-.39-.66L255.7 66.2l-34.12 34.11c-.6.6-.61 1.58 0 2.18z" />
  <path d="m289.82 134.26-34.12-34.11-34.11 34.11a1.545 1.545 0 0 0 .66 2.57c12.6 3.53 25.96-2.21 32.07-13.78.39-.76 1.32-1.07 2.08-.68.29.15.53.39.68.68 6.11 11.57 19.47 17.31 32.07 13.78.82-.24 1.29-1.09 1.05-1.91a1.43 1.43 0 0 0-.38-.66z" />
  <path d="m289.82 168.22-34.12-34.11-34.11 34.11a1.545 1.545 0 0 0 .66 2.57c12.6 3.53 25.96-2.21 32.07-13.78.39-.76 1.32-1.07 2.08-.68.29.15.53.39.68.68 6.11 11.57 19.47 17.31 32.07 13.78.82-.24 1.29-1.09 1.05-1.91-.06-.25-.19-.48-.38-.66z" />
  <path d="M260.57 170.75h-9.76c-1.1 0-2 .9-2 2v26.7h13.76v-26.7c0-1.11-.89-2-2-2z" />
</svg>
  