<svg class="fill-current" viewBox="0 0 1085.52 81">
  <title>Waves Graphic</title>
  <path class="opacity-40" d="M1017.27 18c-30.17-.7-55.96-.83-80.54-.71 30.23 7.33 59.62 14.45 102.29 15.59 16.81.45 32.35-.11 46.51-1.32V11.67c-18.62 4.25-41.25 6.96-68.26 6.33zM514.39 71.36c50.57-.51 115.61-29.41 182.76-50.28-79.19 9.48-135.12 37.3-206.06 37.92-25.22.22-50.16-1.52-75.3-4.01 30.24 8.28 59.27 16.76 98.6 16.37zM282.73 41.72c-20.17-1.13-40.88-1.53-62.34-.72C137.11 44.16 32.47 71.88 0 81h121.02c20.81-7.75 90.66-32.2 161.71-39.28z"/>
  <path d="M1039.02 32.89c-42.67-1.14-72.06-8.26-102.29-15.59C903.38 9.21 869 .87 814.64.03c-38.24-.59-78.22 8.86-117.49 21.06C630 41.95 564.96 70.85 514.39 71.36c-39.33.39-68.37-8.09-98.6-16.37-31.37-8.58-64.03-16.93-110.82-14.89-7.39.32-14.82.88-22.24 1.61C211.68 48.8 141.83 73.25 121.02 81h964.5V31.56c-14.15 1.22-29.69 1.78-46.5 1.33z"/>
</svg>